<?xml version="1.0" encoding="iso-8859-1"?>
<!-- Generator: Adobe Illustrator 16.0.0, SVG Export Plug-In . SVG Version: 6.00 Build 0)  -->
<!DOCTYPE svg PUBLIC "-//W3C//DTD SVG 1.1//EN" "http://www.w3.org/Graphics/SVG/1.1/DTD/svg11.dtd">
<svg version="1.1" id="Layer_1" xmlns="http://www.w3.org/2000/svg" xmlns:xlink="http://www.w3.org/1999/xlink" x="0px" y="0px"
	 width="612px" height="320px" viewBox="0 0 612 320" style="enable-background:new 0 0 612 320;" xml:space="preserve">
<g>
	<defs>
		<rect id="SVGID_1_" width="612" height="320"/>
	</defs>
	<clipPath id="SVGID_2_">
		<use xlink:href="#SVGID_1_"  style="overflow:visible;"/>
	</clipPath>
	<rect style="display:none;clip-path:url(#SVGID_2_);fill:none;" width="612" height="320"/>
	<g style="clip-path:url(#SVGID_2_);">
		<defs>
			<rect id="SVGID_3_" x="18" y="52.281" width="236.452" height="231.719"/>
		</defs>
		<clipPath id="SVGID_4_">
			<use xlink:href="#SVGID_3_"  style="overflow:visible;"/>
		</clipPath>
		<path style="clip-path:url(#SVGID_4_);fill:#8B0000;" d="M250.657,165.13l-25.675-29.903l25.675-29.907
			c0.711-0.815,1.013-1.936,0.821-3.006c-0.196-1.084-0.858-2.009-1.82-2.541L166.54,53.678c-1.405-0.783-3.17-0.551-4.329,0.588
			l-25.246,24.993l-25.014-24.98c-1.158-1.17-2.978-1.402-4.401-0.569l-87.734,50.702c-1.013,0.588-1.693,1.64-1.797,2.811
			c-0.11,1.193,0.355,2.331,1.263,3.115l29.72,25.439l-25.656,34.139c-0.625,0.839-0.876,1.923-0.643,2.956
			c0.214,1.029,0.876,1.899,1.802,2.418l25.547,14.178c-0.105,0.337-0.215,0.692-0.215,1.084v33.696
			c0,4.445,2.39,8.608,6.258,10.854l74.261,42.8c1.993,1.139,4.237,1.727,6.486,1.727c0.018,0,0.032-0.019,0.05-0.019
			s0.036,0.019,0.055,0.019c0.054,0,0.073-0.019,0.123-0.019c2.157-0.036,4.315-0.604,6.24-1.708l74.027-42.677
			c4.01-2.314,6.487-6.618,6.487-11.228v-37.554l25.957-15.835c0.912-0.569,1.533-1.493,1.711-2.541
			C251.656,167.016,251.35,165.932,250.657,165.13 M133.312,175.076l-72.104-39.991l72.104-43.998V175.076z M140.6,90.946
			l72.336,44.139L140.6,175.199V90.946z M165.398,61.379l76.811,42.592l-22.77,26.524l-76.632-46.754L165.398,61.379z
			 M108.777,61.417l22.432,22.398L54.33,130.746l-26.405-22.593L108.777,61.417z M54.969,139.958l76.527,42.427l-23.143,31.083
			L31.702,170.95L54.969,139.958z M59.744,228.784c-1.601-0.942-2.618-2.669-2.618-4.536v-30.85l50.479,27.985
			c0.551,0.318,1.154,0.46,1.76,0.46c1.122,0,2.231-0.515,2.942-1.457l21.005-28.213v79.002L59.744,228.784z M216.535,223.997
			c0,2.01-1.086,3.899-2.851,4.91L140.6,271.053v-78.952l21.255,28.286c0.712,0.961,1.82,1.457,2.924,1.457
			c0.657,0,1.318-0.178,1.907-0.532l49.849-30.418V223.997z M165.705,213.377l-23.198-30.899l76.847-42.623l22.965,26.769
			L165.705,213.377z"/>
	</g>
	<g style="clip-path:url(#SVGID_2_);">
		<defs>
			<rect id="SVGID_5_" width="612" height="320"/>
		</defs>
		<clipPath id="SVGID_6_">
			<use xlink:href="#SVGID_5_"  style="overflow:visible;"/>
		</clipPath>
		<path style="clip-path:url(#SVGID_6_);fill:#8B0000;" d="M305.834,192.417c-3.047-2.561-6.571-3.865-10.572-3.918
			c-1.59,0-3.087,0.399-4.491,1.196c-1.51,0.824-2.292,2.083-2.345,3.781c0.054,1.672,0.94,2.932,2.656,3.78
			c1.58,0.85,3.12,1.479,4.619,1.891l4.168,1.197c4.229,1.105,7.664,2.893,10.308,5.361c2.667,2.547,4.026,6.188,4.077,10.919
			c0,2.958-0.424,5.853-1.271,8.682c-0.872,2.803-2.502,5.259-4.891,7.367c-4.93,3.782-10.552,5.646-16.868,5.596
			c-7.676-0.104-14.647-2.383-20.911-6.837l6.699-12.587c2.025,1.689,4.18,3.11,6.466,4.263c2.335,1.255,4.816,1.883,7.438,1.883
			c1.922,0,3.648-0.501,5.181-1.505c1.531-0.951,2.323-2.456,2.376-4.513c0-1.106-0.331-2.044-0.993-2.817
			c-0.689-0.797-1.571-1.427-2.646-1.89c-2.315-0.952-4.451-1.646-6.408-2.083c-2.34-0.669-4.453-1.429-6.34-2.276
			c-1.963-0.798-3.636-1.775-5.019-2.932c-1.409-1.158-2.465-2.689-3.17-4.591c-0.83-1.879-1.245-4.219-1.245-7.022
			c0.051-6.173,1.995-11.02,5.829-14.545c3.758-3.575,8.661-5.388,14.709-5.439c6.588,0.054,12.817,1.705,18.685,4.96
			L305.834,192.417z"/>
		<polygon style="clip-path:url(#SVGID_6_);fill:#8B0000;" points="320.09,195.612 336.348,195.612 346.972,216.653 
			357.332,195.612 373.363,195.612 341.565,257.136 325.761,257.136 339.297,231.089 		"/>
		<path style="clip-path:url(#SVGID_6_);fill:#8B0000;" d="M409.028,206.199c-2.413-1.278-4.938-1.943-7.578-1.997
			c-0.924,0-1.978,0.184-3.161,0.547c-1.185,0.47-1.806,1.212-1.864,2.227c0,0.653,0.278,1.187,0.832,1.603
			c0.527,0.495,1.179,0.848,1.955,1.056c1.607,0.417,3.007,0.729,4.199,0.937c3.393,0.601,6.145,1.837,8.257,3.712
			c2.11,1.85,3.191,4.674,3.242,8.478c-0.103,5.313-2.075,9.207-5.915,11.68c-3.816,2.397-8.195,3.595-13.137,3.595
			c-5.864-0.053-11.293-1.623-16.286-4.716l5.251-10.133c1.607,1.071,3.474,2.009,5.601,2.819c2.074,0.887,4.032,1.331,5.873,1.331
			c1.011,0,2.022-0.262,3.034-0.783c0.959-0.495,1.465-1.265,1.517-2.309c-0.055-1.563-1.025-2.606-2.914-3.128
			c-0.81-0.339-1.768-0.612-2.873-0.821c-1.161-0.157-2.375-0.365-3.643-0.625c-1.08-0.313-2.135-0.743-3.164-1.291
			c-0.979-0.47-1.908-1.082-2.788-1.84c-1.856-1.537-2.811-4.106-2.86-7.704c0.104-5.007,2.027-8.709,5.774-11.109
			c3.563-2.294,7.66-3.441,12.29-3.441c4.533-0.052,8.891,0.82,13.071,2.616L409.028,206.199z"/>
		<polygon style="clip-path:url(#SVGID_6_);fill:#8B0000;" points="442.652,236.667 428.598,236.667 428.598,207.563 
			424.021,207.563 424.021,195.612 428.598,195.612 428.598,183.309 442.652,183.309 442.652,195.612 450.623,195.612 
			450.623,207.563 442.652,207.563 		"/>
		<path style="clip-path:url(#SVGID_6_);fill:#8B0000;" d="M500.861,218.581h-29.678c0,6.044,2.94,9.093,8.82,9.145
			c3.003,0.054,5.248-1.211,6.738-3.791l13.588,0.041c-1.233,4.804-3.741,8.348-7.521,10.633c-3.755,2.283-7.988,3.426-12.7,3.426
			c-6.703,0-12.171-1.9-16.405-5.703c-4.334-3.723-6.525-9.101-6.575-16.132c0.05-6.927,2.115-12.318,6.198-16.172
			c3.981-3.776,9.248-5.69,15.8-5.743c14.288,0.313,21.532,7.907,21.734,22.782V218.581z M487.765,210.222
			c-0.354-2.031-1.262-3.607-2.726-4.729c-1.489-1.172-3.242-1.759-5.261-1.759c-2.069,0-3.849,0.533-5.338,1.602
			c-1.514,1.12-2.523,2.749-3.028,4.886H487.765z"/>
		<path style="clip-path:url(#SVGID_6_);fill:#8B0000;" d="M526.082,200.745h0.162c3.545-4.358,8.022-6.513,13.434-6.461
			c6.143-0.052,10.814,2.554,14.017,7.813c1.483-2.553,3.475-4.519,5.974-5.899c2.473-1.274,5.115-1.914,7.926-1.914
			c4.951,0.054,8.482,1.563,10.593,4.531c1.962,2.995,2.942,6.889,2.942,11.68v26.172h-14.063V217.03v-3.677
			c-0.055-1.226-0.285-2.424-0.69-3.598c-0.325-1.174-0.907-2.14-1.747-2.896c-0.866-0.678-2.139-1.017-3.818-1.017
			c-1.706,0-3.032,0.313-3.979,0.938c-0.948,0.651-1.665,1.565-2.152,2.737c-0.515,1.122-0.799,2.322-0.853,3.6
			c-0.056,0.651-0.082,1.291-0.082,1.916c-0.108,0.652-0.162,1.317-0.162,1.995v19.637h-14.055v-19.61c0-1.226-0.027-2.5-0.081-3.83
			c-0.055-1.328-0.298-2.551-0.731-3.671c-0.38-1.226-1.016-2.214-1.909-2.971c-0.948-0.702-2.288-1.055-4.021-1.055
			c-1.651,0-2.925,0.353-3.818,1.055c-0.894,0.757-1.557,1.745-1.99,2.971c-0.38,1.12-0.623,2.343-0.731,3.671
			c-0.108,1.33-0.162,2.604-0.162,3.83v19.61h-14.063v-41.055h14.063V200.745z"/>
	</g>
	<g style="clip-path:url(#SVGID_2_);">
		<defs>
			<rect id="SVGID_7_" width="612" height="320"/>
		</defs>
		<clipPath id="SVGID_8_">
			<use xlink:href="#SVGID_7_"  style="overflow:visible;"/>
		</clipPath>
		<path style="clip-path:url(#SVGID_8_);fill:#8B0000;" d="M358.404,139.367l-34.132,25.668l-56.396-10.306V98.335l33.763-25.3
			l56.766,9.568V139.367z M321.42,159.462V110.93l-48.484-8.654v48.513L321.42,159.462z M349.92,86.022l-46.978-8.105
			l-26.464,19.948l46.966,8.473L349.92,86.022z M314.612,133.755c0,4.416-1.274,8.004-3.818,10.764
			c-2.546,2.76-5.996,4.14-10.35,4.14c-1.166,0-2.392-0.124-3.68-0.368c-5.152-0.92-9.4-3.342-12.741-7.268
			c-3.344-3.924-5.015-8.494-5.015-13.708c0-4.108,1.38-7.42,4.141-9.936c2.759-2.514,6.193-3.772,10.303-3.772
			c5.336,0,10.197,2.024,14.582,6.072C312.418,123.727,314.612,128.419,314.612,133.755 M305.872,132.191
			c0-2.637-1.12-5.014-3.358-7.13c-2.24-2.116-4.678-3.174-7.314-3.174c-2.147,0-3.941,0.676-5.382,2.024
			c-1.442,1.35-2.162,3.036-2.162,5.06c0,2.944,1.058,5.582,3.174,7.912c2.116,2.331,4.646,3.496,7.59,3.496
			c2.146,0,3.925-0.75,5.336-2.254C305.166,136.623,305.872,134.645,305.872,132.191 M353.712,137.025V89.377l-27.231,20.895v47.465
			L353.712,137.025z"/>
		<path style="clip-path:url(#SVGID_8_);fill:#8B0000;" d="M453.164,139.367l-34.132,25.668l-56.396-10.306V98.335l33.763-25.3
			l56.766,9.568V139.367z M416.18,159.462V110.93l-48.484-8.654v48.513L416.18,159.462z M444.68,86.022l-46.978-8.105
			l-26.465,19.948l46.967,8.473L444.68,86.022z M406.704,136.146c0,5.398-1.108,8.986-3.324,10.764
			c-1.722,1.348-4.061,2.024-7.012,2.024c-6.279,0-11.109-1.964-14.493-5.888c-2.276-2.637-3.415-6.654-3.415-12.052v-18.124
			l8.464,1.564v16.928c0,2.76,0.277,4.815,0.828,6.164c0.796,2.024,2.392,3.251,4.784,3.68c0.49,0.062,0.95,0.092,1.38,0.092
			c2.882,0,4.324-2.607,4.324-7.82v-17.02l8.464,1.564V136.146z M448.472,137.025V89.377l-27.231,20.895v47.465L448.472,137.025z"/>
		<path style="clip-path:url(#SVGID_8_);fill:#8B0000;" d="M547.923,139.367l-34.132,25.668l-56.396-10.306V98.335l33.764-25.3
			l56.765,9.568V139.367z M510.938,159.462V110.93l-48.484-8.654v48.513L510.938,159.462z M539.438,86.022l-46.923-8.095
			l-26.473,19.947l46.92,8.464L539.438,86.022z M500.727,149.579l-10.436-1.84l-7.872-13.8c0-0.06-0.032-0.092-0.093-0.092v12.42
			l-8.464-1.479v-32.463l12.493,2.554c7.495,1.347,11.243,5.325,11.243,11.934c0,2.266-0.614,4.131-1.84,5.601
			c-1.228,1.469-2.944,2.202-5.152,2.202L500.727,149.579z M488.858,125.659c0-2.636-1.932-4.324-5.796-5.06l-0.736-0.184v8.096
			l0.816,0.092c0.907,0.184,1.664,0.276,2.269,0.276C487.71,128.879,488.858,127.806,488.858,125.659 M543.23,137.025V89.377
			L516,110.271v47.465L543.23,137.025z"/>
	</g>
	<polygon style="clip-path:url(#SVGID_2_);fill:none;stroke:#8B0000;stroke-width:3;stroke-miterlimit:10;" points="
		536.241,128.332 524.737,137.333 524.737,116.828 536.241,109.27 	"/>
	<g style="clip-path:url(#SVGID_2_);">
		<defs>
			<rect id="SVGID_9_" width="612" height="320"/>
		</defs>
		<clipPath id="SVGID_10_">
			<use xlink:href="#SVGID_9_"  style="overflow:visible;"/>
		</clipPath>
		
			<ellipse style="clip-path:url(#SVGID_10_);fill:none;stroke:#8B0000;stroke-width:2;stroke-miterlimit:10;" cx="530.395" cy="122.917" rx="1.939" ry="3.842"/>
	</g>
</g>
</svg>
